<?xml version="1.0" encoding="iso-8859-1"?>
<!-- Generator: Adobe Illustrator 19.0.0, SVG Export Plug-In . SVG Version: 6.00 Build 0)  -->
<svg version="1.1" id="Layer_1" xmlns="http://www.w3.org/2000/svg" xmlns:xlink="http://www.w3.org/1999/xlink" x="0px" y="0px"
	 viewBox="0 0 504.6 504.6" style="enable-background:new 0 0 504.6 504.6;" xml:space="preserve">
<g>
	<g>
		<path d="M495.3,450.7l-104.4-104h73.6c17.2,0,31.6-14,31.6-31.6c0-17.2-14-31.6-31.6-31.6h-94.4c-47.6,0-86.4,38.8-86.4,86.8v94.4
			c0,17.2,14,31.6,31.6,31.6c17.2,0,31.6-14,31.6-31.6v-73.2l103.6,103.6c6,6,14,9.2,22.4,9.2c8.4,0,16.4-3.2,22.4-9.2
			C507.7,482.7,507.7,462.7,495.3,450.7z"/>
	</g>
</g>
<g>
	<g>
		<path d="M188.9,8.3c-17.2,0-31.6,14-31.6,31.6v73.6L53.7,9.5c-6-6-13.6-9.2-22-9.2c-8.4,0-16.4,3.2-22.4,9.2
			c-12.4,12.4-12.4,32.4,0,44.4l103.6,103.6h-74c-17.2,0-31.6,14-31.6,31.6c0,17.2,14,31.6,31.6,31.6h94.8
			c47.6,0,86.8-38.8,86.8-86.4V39.5C220.5,22.3,206.5,8.3,188.9,8.3z"/>
	</g>
</g>
<g>
	<g>
		<path d="M133.7,283.9h-94c-17.2,0-31.6,14-31.6,31.6c0,17.2,14,31.6,31.6,31.6h73.2L9.3,450.7c-12.4,12.4-12.4,32.4,0,44.4
			c6,6,14,9.2,22.4,9.2c8.4,0,16.4-3.2,22.4-9.2l103.6-103.6v73.6c0,17.2,14,31.6,31.6,31.6c17.2,0,31.6-14,31.6-31.6v-94.8
			C220.5,322.7,181.7,283.9,133.7,283.9z"/>
	</g>
</g>
<g>
	<g>
		<path d="M464.9,157.5h-74L494.5,53.9c12.4-12.4,12.4-32.4,0-44.4c-6-6-14-9.2-22.4-9.2c-8.4,0-16.4,3.2-22.4,9.2L346.5,113.1V39.5
			c0-17.2-14-31.6-31.6-31.6c-17.2,0-31.6,14-31.6,31.6v94.4c0.4,48,39.2,86.8,86.8,86.8h94.8c17.2,0,31.6-14,31.6-31.6
			C496.5,171.9,482.5,157.5,464.9,157.5z"/>
	</g>
</g>
<g>
</g>
<g>
</g>
<g>
</g>
<g>
</g>
<g>
</g>
<g>
</g>
<g>
</g>
<g>
</g>
<g>
</g>
<g>
</g>
<g>
</g>
<g>
</g>
<g>
</g>
<g>
</g>
<g>
</g>
</svg>
